# xmcd
#
# Track frame offsets: 
#        150
#        4858
#        24663
#        38511
#        53866
#        69903
#        85639
#        106486
#        131291
#        152291
#        170579
#        192196
#        215584
#        239671
#        257117
#
# Disc length: 3673 seconds
#
# Revision: 0
# Processed by: cddbd v1.5.2PL0 Copyright (c) Steve Scherf et al.
# Submitted via: ExactAudioCopyFreeDBPlugin 1.0
#
DISCID=be0e570f
DTITLE=Mally - The Colors Of Black
DYEAR=2014
DGENRE=Hip-Hop
TTITLE0=Child of America
TTITLE1=Two Worlds
TTITLE2=Innervisions
TTITLE3=City of Fear ft. Rapper Hooks
TTITLE4=Hold My Tongue ft. Slug and Rapper Hooks
TTITLE5=Machine Gun
TTITLE6=Not Never...
TTITLE7=All of My Life (Part 2) ft. K. Raydio
TTITLE8=Everthing Else But Me
TTITLE9=One Million
TTITLE10=A Long Day
TTITLE11=Crimson
TTITLE12=Grow This Way 
TTITLE13=To the Future
TTITLE14=The Colors of Black
EXTD=
EXTT0=
EXTT1=
EXTT2=
EXTT3=
EXTT4=
EXTT5=
EXTT6=
EXTT7=
EXTT8=
EXTT9=
EXTT10=
EXTT11=
EXTT12=
EXTT13=
EXTT14=
PLAYORDER=
